<?xml version="1.0"?><svg width="640" height="480" xmlns="http://www.w3.org/2000/svg">
 <title>Restroom</title>
 <g>
  <path stroke-width="12" fill="#ffffff" stroke="#050505" id="path2553" d="m161.965118,35.92099c-30.794128,0 -48.104683,15.041801 -48.104683,45.77507l0,316.814835c0,28.74704 15.56356,43.798706 46.332344,43.798706l336.752991,0c30.770294,0 46.357635,-14.302094 46.357635,-43.798706l0,-316.814835c0,-29.983673 -15.587341,-45.77507 -47.323883,-45.77507c0,0 -334.120941,-0.099953 -334.014404,0z"/>
  <g id="g2555">
   <path stroke="#fcfcfc" id="path2557" d="m343.922821,99.562454l0,276.793625l-27.597382,0l0,-276.793625l27.597382,0z"/>
   <path stroke="#fcfcfc" id="path2559" d="m330.124146,237.959625"/>
  </g>
  <g id="g2561">
   <g id="g2563">
    <path stroke="#fcfcfc" id="path2565" d="m229.491791,142.672775c13.336792,0 24.148056,-10.214157 24.148056,-22.814339c0,-12.599472 -10.811264,-22.814331 -24.148056,-22.814331c-13.334564,0 -24.148071,10.214859 -24.148071,22.814331c0,12.600182 10.813507,22.814339 24.148071,22.814339z"/>
    <path stroke="#fcfcfc" id="path2567" d="m229.491791,119.858437"/>
   </g>
   <path stroke="#fcfcfc" id="path2569" d="m225.921051,287.32782l0.009689,79.805115c0,14.35907 -22.769836,14.35907 -22.769836,0l-0.009689,-79.805115l-30.175171,0l32.287216,-105.817749l-5.074875,0l-19.014343,60.447372c-4.525803,13.183655 -23.685577,7.767609 -19.302063,-6.350067l21.112396,-65.670578c2.262527,-7.488876 12.287842,-20.76474 29.639374,-20.76474l16.000137,0l0,0l17.220398,0c17.198074,0 27.267349,13.387772 29.870316,20.76474l21.120422,65.606537c4.224121,14.110626 -14.784271,19.953918 -19.310059,6.20015l-19.008423,-60.233414l-5.495026,0l32.634247,105.817749l-30.3069,0l0,79.911407c0,14.252777 -22.675964,14.181702 -22.675964,0l0,-79.911407l-6.751846,0z"/>
  </g>
  <g id="g2571">
   <path stroke="#fcfcfc" id="path2573" d="m401.817383,149.086182c-16.991699,0 -30.657043,13.279388 -30.657043,29.842911l0,70.596069c0,13.72493 20.961761,13.72493 20.961761,0l0,-64.552185l4.962372,0l0,178.864548c0,18.350586 27.912476,17.81073 27.912476,0l0,-104.714081l4.808167,0l0,104.714081c0,17.81073 28.065979,18.350586 28.065979,0l0,-178.864548l4.845398,0l0,64.552185c0,13.83049 20.852203,13.829788 20.814972,0l0,-70.173767c0,-15.273376 -12.377228,-30.233536 -31.033997,-30.233536l-50.680084,-0.031677z"/>
   <g id="g2575">
    <path stroke="#fcfcfc" id="path2577" d="m427.286316,142.672775c13.336792,0 24.148071,-10.214157 24.148071,-22.814339c0,-12.599472 -10.811279,-22.814331 -24.148071,-22.814331c-13.334534,0 -24.148071,10.214859 -24.148071,22.814331c0,12.600182 10.813538,22.814339 24.148071,22.814339z"/>
    <path stroke="#fcfcfc" id="path2579" d="m427.286316,119.858437"/>
   </g>
  </g>
  <title>Layer 1</title>
 </g>
</svg>